<svg height="428pt" viewBox="-16 0 428 428.00022" width="428pt" xmlns="http://www.w3.org/2000/svg"><path d="m327 277.414062c.070312 1.773438-.605469 3.492188-1.863281 4.746094-1.257813 1.25-2.980469 1.917969-4.753907 1.839844h-244.765624c-1.773438.078125-3.496094-.589844-4.753907-1.839844-1.257812-1.253906-1.933593-2.972656-1.863281-4.746094v-128.414062h-69v196h396v-196h-69zm0 0"/><path d="m327 359h53v69h-53zm0 0"/><path d="m14 359h53v69h-53zm0 0"/><path d="m83 141.917969v128.082031h230v-128.082031c0-3.867188 3.515625-6.917969 7.382812-6.917969h39.617188v-102.210938c0-18.199218-15.179688-32.789062-33.375-32.789062h-255.792969c-8.710937-.03125-17.070312 3.410156-23.234375 9.566406-6.164062 6.152344-9.617187 14.511719-9.597656 23.222656v102.210938h37.617188c3.867187 0 7.382812 3.050781 7.382812 6.917969zm0 0"/></svg>