<svg id="Layer_1" height="512" viewBox="0 0 512 512" width="512" xmlns="http://www.w3.org/2000/svg" data-name="Layer 1"><path d="m451.862 154.174c0-11.02-9.205-19.986-20.519-19.986h-149.684a20.291 20.291 0 0 0 -14.5 5.955 20.73 20.73 0 0 0 -5.959 14.857l-.02 97.859 165.9.046v-5.384a37.177 37.177 0 0 1 24.786-34.829z"/><path d="m47.215 222.45c-14.176 0-25.71 11.247-25.71 25.072v130.29h51.419v-117.827a5.964 5.964 0 0 1 0-2.351v-10.112c0-13.822-11.533-25.072-25.709-25.072z"/><path d="m84.924 252.811 164.254.046-.038-98.681c0-11.022-9.2-19.988-20.518-19.988h-150.533c-11.314 0-20.519 8.966-20.519 19.986v57.709a37.23 37.23 0 0 1 27.354 35.639z"/><path d="m464.785 222.45c-14.176 0-25.709 11.247-25.709 25.072v130.29h51.424v-130.29c0-13.822-11.539-25.072-25.715-25.072z"/><path d="m255.183 264.859h-.003-.001l-.011-.001-170.244-.047v65.763l342.152.103v-65.771l-171.882-.048z"/></svg>