<svg height="384pt" viewBox="0 -16 384 384" width="384pt" xmlns="http://www.w3.org/2000/svg"><path d="m352 224v96h-105.359375l-43.359375-43.28125c-6.242188-6.320312-16.320312-6.320312-22.5625 0l-43.359375 43.28125h-105.359375v-96zm-16 64v-32c0-8.800781-7.199219-16-16-16h-56c-8.800781 0-16 7.199219-16 16v32c0 8.800781 7.199219 16 16 16h56c8.800781 0 16-7.199219 16-16zm-200 0v-32c0-8.800781-7.199219-16-16-16h-56c-8.800781 0-16 7.199219-16 16v32c0 8.800781 7.199219 16 16 16h56c8.800781 0 16-7.199219 16-16zm0 0" fill="#4dd0e1"/><path d="m192 224v48c-4.078125 0-8.160156 1.601562-11.28125 4.71875l-43.359375 43.28125h-105.359375v-96zm0 0" fill="#ff7043"/><g fill="#012e52"><path d="m16 352h128c4.238281 0 8.320312-1.679688 11.28125-4.71875l36.71875-36.640625 36.71875 36.640625c2.960938 3.039062 7.042969 4.71875 11.28125 4.71875h128c8.800781 0 16-7.199219 16-16v-128c0-.320312-.078125-.558594-.078125-.878906 0-.5625-.082031-1.121094-.160156-1.679688-.082031-.5625-.242188-1.121094-.402344-1.601562-.078125-.320313-.078125-.640625-.160156-.878906l-64-192c-2.238281-6.5625-8.320313-10.960938-15.199219-10.960938h-40c-8.800781 0-16 7.199219-16 16s7.199219 16 16 16h28.480469l53.359375 160h-307.679688l53.359375-160h28.480469c8.800781 0 16-7.199219 16-16s-7.199219-16-16-16h-40c-6.878906 0-12.960938 4.398438-15.199219 10.960938l-64 192c-.082031.238281-.082031.558593-.160156.878906-.160156.480468-.320313 1.039062-.402344 1.601562-.078125.558594-.160156 1.117188-.160156 1.679688 0 .320312-.078125.558594-.078125.878906v128c0 8.800781 7.199219 16 16 16zm16-128h320v96h-105.359375l-43.359375-43.28125c-6.242188-6.320312-16.320312-6.320312-22.5625 0l-43.359375 43.28125h-105.359375zm0 0"/><path d="m264 304h56c8.800781 0 16-7.199219 16-16v-32c0-8.800781-7.199219-16-16-16h-56c-8.800781 0-16 7.199219-16 16v32c0 8.800781 7.199219 16 16 16zm0 0"/><path d="m120 240h-56c-8.800781 0-16 7.199219-16 16v32c0 8.800781 7.199219 16 16 16h56c8.800781 0 16-7.199219 16-16v-32c0-8.800781-7.199219-16-16-16zm0 0"/></g></svg>