<svg height="384pt" viewBox="-64 0 384 384" width="384pt" xmlns="http://www.w3.org/2000/svg"><path d="m200 145.519531v110.480469h-26.398438l-29.601562-23.679688v-32.320312h16c8.800781 0 16-7.199219 16-16s-7.199219-16-16-16h-64c-8.800781 0-16 7.199219-16 16s7.199219 16 16 16h16v32.320312l-29.601562 23.679688h-26.398438v-110.480469l43.921875-24c2.476563 1.199219 5.039063 2.160157 7.597656 3.039063 1.121094.402344 2.242188.640625 3.28125.960937 1.597657.402344 3.199219.800781 4.800781 1.121094 1.4375.320313 2.878907.558594 4.320313.71875 1.359375.160156 2.796875.242187 4.15625.320313 1.28125.082031 2.5625.320312 3.921875.320312s2.640625-.238281 3.921875-.320312c1.4375-.078126 2.796875-.160157 4.15625-.320313 1.441406-.160156 2.882813-.398437 4.320313-.71875 1.601562-.320313 3.121093-.640625 4.722656-1.121094 1.117187-.320312 2.238281-.558593 3.359375-.960937 2.558593-.878906 5.121093-1.839844 7.597656-3.039063zm0 0" fill="#ff7043"/><path d="m168 288v64h-24v-78.71875l14 11.199219c2.878906 2.320312 6.398438 3.519531 10 3.519531zm0 0" fill="#4dd0e1"/><path d="m128 32c17.679688 0 32 14.320312 32 32 0 10.320312-5.039062 20.078125-13.519531 26.078125-8.160157 5.84375-18.800781 7.28125-28.160157 4.402344-3.121093-1.039063-6.082031-2.480469-8.878906-4.402344-8.402344-6-13.441406-15.757813-13.441406-26.078125 0-17.679688 14.320312-32 32-32zm0 0" fill="#e0f7fa"/><path d="m112 273.28125v78.71875h-24v-64c3.601562 0 7.121094-1.199219 10-3.519531zm0 0" fill="#4dd0e1"/><path d="m16 384h224c8.800781 0 16-7.199219 16-16s-7.199219-16-16-16h-40v-64h16c8.800781 0 16-7.199219 16-16v-136c0-5.839844-3.199219-11.199219-8.320312-14.078125l-42.160157-22.960937c6.71875-10.242188 10.480469-22.402344 10.480469-34.960938 0-35.28125-28.71875-64-64-64s-64 28.71875-64 64c0 12.558594 3.761719 24.71875 10.480469 34.960938l-42.160157 22.960937c-5.121093 2.878906-8.320312 8.238281-8.320312 14.078125v136c0 8.800781 7.199219 16 16 16h16v64h-40c-8.800781 0-16 7.199219-16 16s7.199219 16 16 16zm96-32h-24v-64c3.601562 0 7.121094-1.199219 10-3.519531l14-11.199219zm56 0h-24v-78.71875l14 11.199219c2.878906 2.320312 6.398438 3.519531 10 3.519531zm-40-320c17.679688 0 32 14.320312 32 32 0 10.320312-5.039062 20.078125-13.519531 26.078125-8.160157 5.84375-18.800781 7.28125-28.160157 4.402344-3.121093-1.039063-6.082031-2.480469-8.878906-4.402344-8.402344-6-13.441406-15.757813-13.441406-26.078125 0-17.679688 14.320312-32 32-32zm-72 113.519531 43.921875-24c2.476563 1.199219 5.039063 2.160157 7.597656 3.039063 1.121094.402344 2.242188.640625 3.28125.960937 1.597657.402344 3.199219.800781 4.800781 1.121094 1.4375.320313 2.878907.558594 4.320313.71875 1.359375.160156 2.796875.242187 4.15625.320313 1.28125.082031 2.5625.320312 3.921875.320312s2.640625-.238281 3.921875-.320312c1.4375-.078126 2.796875-.160157 4.15625-.320313 1.441406-.160156 2.882813-.398437 4.320313-.71875 1.601562-.320313 3.121093-.640625 4.722656-1.121094 1.117187-.320312 2.238281-.558593 3.359375-.960937 2.558593-.878906 5.121093-1.839844 7.597656-3.039063l43.921875 24v110.480469h-26.398438l-29.601562-23.679688v-32.320312h16c8.800781 0 16-7.199219 16-16s-7.199219-16-16-16h-64c-8.800781 0-16 7.199219-16 16s7.199219 16 16 16h16v32.320312l-29.601562 23.679688h-26.398438zm0 0" fill="#012e52"/></svg>