<svg height="384pt" viewBox="-32 0 384 384" width="384pt" xmlns="http://www.w3.org/2000/svg"><path d="m32 248h256v16h-256zm0 0" fill="#ff7043"/><path d="m64 64h192v96h-192zm0 0" fill="#4dd0e1"/><path d="m304 296c8.800781 0 16-7.199219 16-16v-48c0-8.800781-7.199219-16-16-16h-64v-24h32c8.800781 0 16-7.199219 16-16v-128c0-8.800781-7.199219-16-16-16h-32v-16c0-8.800781-7.199219-16-16-16s-16 7.199219-16 16v16h-96v-16c0-8.800781-7.199219-16-16-16s-16 7.199219-16 16v16h-32c-8.800781 0-16 7.199219-16 16v128c0 8.800781 7.199219 16 16 16h32v24h-64c-8.800781 0-16 7.199219-16 16v48c0 8.800781 7.199219 16 16 16h27.921875l82.878906 45.601562-22.480469 12.398438c-7.761718 4.238281-10.558593 14-6.320312 21.679688 2.878906 5.359374 8.398438 8.320312 14 8.320312 2.640625 0 5.28125-.640625 7.679688-2l40.320312-22.160156 40.320312 22.160156c2.398438 1.359375 5.039063 2 7.679688 2 5.601562 0 11.121094-2.960938 14-8.320312 4.238281-7.679688 1.441406-17.441407-6.320312-21.679688l-22.480469-12.398438 82.878906-45.601562zm-240-136v-96h192v96zm144 32v24h-96v-24zm-176 72v-16h256v16zm128 59.359375-49.679688-27.359375h99.359376zm0 0" fill="#012e52"/></svg>