<svg height="384pt" viewBox="0 0 384 384" width="384pt" xmlns="http://www.w3.org/2000/svg"><path d="m352 176v176h-24v-176c0-4.398438 3.601562-8 8-8h8c4.398438 0 8 3.601562 8 8zm0 0" fill="#ff8a65"/><path d="m88 304h208v48h-208zm0 0" fill="#ff7043"/><path d="m296 176v96h-208v-160c0-44.078125 35.921875-80 80-80h48c44.078125 0 80 35.921875 80 80zm-40-48c0-13.199219-10.800781-24-24-24s-24 10.800781-24 24 10.800781 24 24 24 24-10.800781 24-24zm0 80c0-13.199219-10.800781-24-24-24s-24 10.800781-24 24 10.800781 24 24 24 24-10.800781 24-24zm-80-80c0-13.199219-10.800781-24-24-24s-24 10.800781-24 24 10.800781 24 24 24 24-10.800781 24-24zm0 80c0-13.199219-10.800781-24-24-24s-24 10.800781-24 24 10.800781 24 24 24 24-10.800781 24-24zm0 0" fill="#4dd0e1"/><path d="m56 176v176h-24v-176c0-4.398438 3.601562-8 8-8h8c4.398438 0 8 3.601562 8 8zm0 0" fill="#ff8a65"/><g fill="#012e52"><path d="m344 136h-8c-2.71875 0-5.441406.320312-8 .800781v-24.800781c0-61.761719-50.238281-112-112-112h-48c-61.761719 0-112 50.238281-112 112v24.800781c-2.558594-.480469-5.28125-.800781-8-.800781h-8c-22.078125 0-40 17.921875-40 40v192c0 8.800781 7.199219 16 16 16h352c8.800781 0 16-7.199219 16-16v-192c0-22.078125-17.921875-40-40-40zm-288 216h-24v-176c0-4.398438 3.601562-8 8-8h8c4.398438 0 8 3.601562 8 8zm240 0h-208v-48h208zm0-176v96h-208v-160c0-44.078125 35.921875-80 80-80h48c44.078125 0 80 35.921875 80 80zm56 176h-24v-176c0-4.398438 3.601562-8 8-8h8c4.398438 0 8 3.601562 8 8zm0 0"/><path d="m256 128c0 13.253906-10.746094 24-24 24s-24-10.746094-24-24 10.746094-24 24-24 24 10.746094 24 24zm0 0"/><path d="m256 208c0 13.253906-10.746094 24-24 24s-24-10.746094-24-24 10.746094-24 24-24 24 10.746094 24 24zm0 0"/><path d="m176 128c0 13.253906-10.746094 24-24 24s-24-10.746094-24-24 10.746094-24 24-24 24 10.746094 24 24zm0 0"/><path d="m176 208c0 13.253906-10.746094 24-24 24s-24-10.746094-24-24 10.746094-24 24-24 24 10.746094 24 24zm0 0"/></g></svg>