<svg height="384pt" viewBox="0 0 384 384" width="384pt" xmlns="http://www.w3.org/2000/svg"><path d="m288 54.390625v30.800781l-32 8.800782v-30.878907zm0 0" fill="#e0f7fa"/><path d="m352 36.953125v30.800781l-32 8.71875v-30.800781zm0 0" fill="#ff8a65"/><path d="m224 71.832031v30.878907l-192 52.320312v-30.800781zm0 0" fill="#ff7043"/><path d="m208.878906 271.992188-32.878906 19.761718v-39.523437zm0 0" fill="#ff8a65"/><path d="m160 191.992188h-128v160h320v-160zm88.238281 93.679687-80 48c-2.558593 1.601563-5.359375 2.320313-8.238281 2.320313-2.71875 0-5.441406-.71875-7.921875-2.078126-4.957031-2.800781-8.078125-8.160156-8.078125-13.921874v-96c0-5.761719 3.121094-11.121094 8.078125-13.917969 2.480469-1.441407 5.203125-2.082031 7.921875-2.082031 2.800781 0 5.679688.71875 8.238281 2.320312l80 48c4.800781 2.878906 7.761719 8.078125 7.761719 13.679688 0 5.601562-2.960938 10.800781-7.761719 13.679687zm0 0" fill="#4dd0e1"/><g fill="#012e52"><path d="m377.679688 3.273438c-3.917969-3.042969-9.039063-4-13.917969-2.722657l-352 96c-6.960938 1.921875-11.761719 8.242188-11.761719 15.441407v256c0 8.800781 7.199219 16 16 16h352c8.800781 0 16-7.199219 16-16v-192c0-8.800782-7.199219-16-16-16h-232.480469l236.71875-64.558594c6.960938-1.921875 11.761719-8.242188 11.761719-15.441406v-64c0-4.960938-2.320312-9.679688-6.320312-12.71875zm-217.679688 188.71875h192v160h-320v-160zm64-89.28125-192 52.320312v-30.800781l192-52.398438zm64-17.519532-32 8.800782v-30.878907l32-8.722656zm64-17.4375-32 8.71875v-30.800781l32-8.71875zm0 0"/><path d="m152.078125 333.914062c2.480469 1.359376 5.203125 2.078126 7.921875 2.078126 2.878906 0 5.679688-.71875 8.238281-2.320313l80-48c4.800781-2.878906 7.761719-8.078125 7.761719-13.679687 0-5.601563-2.960938-10.800782-7.761719-13.679688l-80-48c-2.558593-1.601562-5.4375-2.320312-8.238281-2.320312-2.71875 0-5.441406.640624-7.921875 2.082031-4.957031 2.796875-8.078125 8.15625-8.078125 13.917969v96c0 5.761718 3.121094 11.121093 8.078125 13.921874zm23.921875-81.683593 32.878906 19.761719-32.878906 19.761718zm0 0"/></g></svg>