<svg height="384pt" viewBox="0 0 384 384" width="384pt" xmlns="http://www.w3.org/2000/svg"><path d="m288 168c0 8.835938-7.164062 16-16 16s-16-7.164062-16-16 7.164062-16 16-16 16 7.164062 16 16zm0 0" fill="#ff8a65"/><path d="m128 168c0 8.835938-7.164062 16-16 16s-16-7.164062-16-16 7.164062-16 16-16 16 7.164062 16 16zm0 0" fill="#ff8a65"/><path d="m32 32h320v32h-320zm0 0" fill="#ff7043"/><path d="m336 96v256h-128v-256zm-16 72c0-26.480469-21.519531-48-48-48s-48 21.519531-48 48 21.519531 48 48 48 48-21.519531 48-48zm-64 104v-24c0-8.800781-7.199219-16-16-16s-16 7.199219-16 16v24c0 8.800781 7.199219 16 16 16s16-7.199219 16-16zm0 0" fill="#4dd0e1"/><path d="m176 96v256h-128v-256zm-16 176v-24c0-8.800781-7.199219-16-16-16s-16 7.199219-16 16v24c0 8.800781 7.199219 16 16 16s16-7.199219 16-16zm0-104c0-26.480469-21.519531-48-48-48s-48 21.519531-48 48 21.519531 48 48 48 48-21.519531 48-48zm0 0" fill="#4dd0e1"/><g fill="#012e52"><path d="m368 0h-352c-8.800781 0-16 7.199219-16 16v64c0 8.800781 7.199219 16 16 16v272c0 8.800781 7.199219 16 16 16h320c8.800781 0 16-7.199219 16-16v-272c8.800781 0 16-7.199219 16-16v-64c0-8.800781-7.199219-16-16-16zm-192 352h-128v-256h128zm160 0h-128v-256h128zm16-288h-320v-32h320zm0 0"/><path d="m272 216c26.480469 0 48-21.519531 48-48s-21.519531-48-48-48-48 21.519531-48 48 21.519531 48 48 48zm0-64c8.800781 0 16 7.199219 16 16s-7.199219 16-16 16-16-7.199219-16-16 7.199219-16 16-16zm0 0"/><path d="m240 288c8.800781 0 16-7.199219 16-16v-24c0-8.800781-7.199219-16-16-16s-16 7.199219-16 16v24c0 8.800781 7.199219 16 16 16zm0 0"/><path d="m144 232c-8.800781 0-16 7.199219-16 16v24c0 8.800781 7.199219 16 16 16s16-7.199219 16-16v-24c0-8.800781-7.199219-16-16-16zm0 0"/><path d="m112 216c26.480469 0 48-21.519531 48-48s-21.519531-48-48-48-48 21.519531-48 48 21.519531 48 48 48zm0-64c8.800781 0 16 7.199219 16 16s-7.199219 16-16 16-16-7.199219-16-16 7.199219-16 16-16zm0 0"/></g></svg>