<svg height="384pt" viewBox="0 0 384 384" width="384pt" xmlns="http://www.w3.org/2000/svg"><path d="m269.761719 96.960938c46.878906 6.71875 82.238281 47.597656 82.238281 95.039062s-35.359375 88.320312-82.238281 95.039062c-58.722657 8.160157-109.761719-37.597656-109.761719-95.039062 0-3.441406.238281-6.878906.558594-10.238281.082031-.960938.320312-1.921875.402344-2.882813.398437-2.398437.71875-4.800781 1.277343-7.199218.160157-.960938.480469-1.917969.722657-2.878907.558593-2.320312 1.199218-4.640625 1.917968-6.878906.320313-.800781.640625-1.683594.960938-2.5625.800781-2.320313 1.761718-4.558594 2.71875-6.800781.320312-.71875.722656-1.359375 1.042968-2.078125 1.117188-2.320313 2.320313-4.640625 3.679688-6.878907.238281-.5625.558594-1.042968.878906-1.601562 1.519532-2.398438 3.039063-4.71875 4.71875-6.960938.242188-.320312.480469-.640624.722656-.960937 1.839844-2.398437 3.839844-4.796875 5.917969-7.039063.082031-.078124.160157-.238281.320313-.320312 15.761718-16.957031 37.519531-28.160156 61.839844-30.320312.878906-.078126 1.761718-.078126 2.640624-.078126 2.558594-.160156 5.199219-.320312 7.839844-.242187.558594 0 1.121094 0 1.679688.082031 3.28125.078125 6.558594.320313 9.921875.800782zm18.238281 95.039062c0-17.679688-14.320312-32-32-32s-32 14.320312-32 32 14.320312 32 32 32 32-14.320312 32-32zm0 0" fill="#ff7043"/><path d="m256 320v32h-224v-320h224v32c-70.558594 0-128 57.441406-128 128s57.441406 128 128 128zm-96-256c0-8.800781-7.199219-16-16-16h-80c-8.800781 0-16 7.199219-16 16s7.199219 16 16 16h80c8.800781 0 16-7.199219 16-16zm-32 48c0-8.800781-7.199219-16-16-16h-48c-8.800781 0-16 7.199219-16 16s7.199219 16 16 16h48c8.800781 0 16-7.199219 16-16zm0 0" fill="#4dd0e1"/><g fill="#012e52"><path d="m16 384h256c8.800781 0 16-7.199219 16-16v-52.078125c55.601562-14.402344 96-65.363281 96-123.921875s-40.398438-109.441406-96-123.839844v-52.160156c0-8.800781-7.199219-16-16-16h-256c-8.800781 0-16 7.199219-16 16v352c0 8.800781 7.199219 16 16 16zm243.839844-287.839844c3.28125.078125 6.558594.320313 9.921875.800782 46.878906 6.71875 82.238281 47.597656 82.238281 95.039062s-35.359375 88.320312-82.238281 95.039062c-58.722657 8.160157-109.761719-37.597656-109.761719-95.039062 0-3.441406.238281-6.878906.558594-10.238281.082031-.960938.320312-1.921875.402344-2.882813.398437-2.398437.71875-4.800781 1.277343-7.199218.160157-.960938.480469-1.917969.722657-2.878907.558593-2.320312 1.199218-4.640625 1.917968-6.878906.320313-.800781.640625-1.683594.960938-2.5625.800781-2.320313 1.761718-4.558594 2.71875-6.800781.320312-.71875.722656-1.359375 1.042968-2.078125 1.117188-2.320313 2.320313-4.640625 3.679688-6.878907.238281-.5625.558594-1.042968.878906-1.601562 1.519532-2.398438 3.039063-4.71875 4.71875-6.960938.242188-.320312.480469-.640624.722656-.960937 1.839844-2.398437 3.839844-4.796875 5.917969-7.039063.082031-.078124.160157-.238281.320313-.320312 15.761718-16.957031 37.519531-28.160156 61.839844-30.320312.878906-.078126 1.761718-.078126 2.640624-.078126 2.558594-.160156 5.199219-.320312 7.839844-.242187.558594 0 1.121094 0 1.679688.082031zm-227.839844-64.160156h224v32c-70.558594 0-128 57.441406-128 128s57.441406 128 128 128v32h-224zm0 0"/><path d="m288 192c0 17.671875-14.328125 32-32 32s-32-14.328125-32-32 14.328125-32 32-32 32 14.328125 32 32zm0 0"/><path d="m64 80h80c8.800781 0 16-7.199219 16-16s-7.199219-16-16-16h-80c-8.800781 0-16 7.199219-16 16s7.199219 16 16 16zm0 0"/><path d="m112 96h-48c-8.800781 0-16 7.199219-16 16s7.199219 16 16 16h48c8.800781 0 16-7.199219 16-16s-7.199219-16-16-16zm0 0"/></g></svg>