<svg height="384pt" viewBox="0 -64 384 384" width="384pt" xmlns="http://www.w3.org/2000/svg"><path d="m352 32v112h-320v-112zm-24 56c0-13.199219-10.800781-24-24-24s-24 10.800781-24 24 10.800781 24 24 24 24-10.800781 24-24zm-72 0c0-8.800781-7.199219-16-16-16h-168c-8.800781 0-16 7.199219-16 16s7.199219 16 16 16h168c8.800781 0 16-7.199219 16-16zm0 0" fill="#4dd0e1"/><path d="m321.839844 176-5.359375 16h-248.960938l-5.359375-16zm0 0" fill="#ff7043"/><g fill="#012e52"><path d="m368 0h-352c-8.800781 0-16 7.199219-16 16v144c0 8.800781 7.199219 16 16 16h12.480469l12.320312 37.039062c2.238281 6.5625 8.320313 10.960938 15.199219 10.960938h32v16c0 8.800781 7.199219 16 16 16s16-7.199219 16-16v-16h144v16c0 8.800781 7.199219 16 16 16s16-7.199219 16-16v-16h32c6.878906 0 12.960938-4.398438 15.199219-10.960938l12.320312-37.039062h12.480469c8.800781 0 16-7.199219 16-16v-144c0-8.800781-7.199219-16-16-16zm-51.519531 192h-248.960938l-5.359375-16h259.679688zm35.519531-48h-320v-112h320zm0 0"/><path d="m328 88c0 13.253906-10.746094 24-24 24s-24-10.746094-24-24 10.746094-24 24-24 24 10.746094 24 24zm0 0"/><path d="m72 104h168c8.800781 0 16-7.199219 16-16s-7.199219-16-16-16h-168c-8.800781 0-16 7.199219-16 16s7.199219 16 16 16zm0 0"/></g></svg>