<svg height="384pt" viewBox="0 0 384 384" width="384pt" xmlns="http://www.w3.org/2000/svg"><path d="m192 32c88.238281 0 160 71.761719 160 160s-71.761719 160-160 160-160-71.761719-160-160 71.761719-160 160-160zm136 160c0-26.480469-21.519531-48-48-48s-48 21.519531-48 48 21.519531 48 48 48 48-21.519531 48-48zm-88-88c0-26.480469-21.519531-48-48-48s-48 21.519531-48 48 21.519531 48 48 48 48-21.519531 48-48zm0 176c0-26.480469-21.519531-48-48-48s-48 21.519531-48 48 21.519531 48 48 48 48-21.519531 48-48zm-24-88c0-13.199219-10.800781-24-24-24s-24 10.800781-24 24 10.800781 24 24 24 24-10.800781 24-24zm-64 0c0-26.480469-21.519531-48-48-48s-48 21.519531-48 48 21.519531 48 48 48 48-21.519531 48-48zm0 0" fill="#4dd0e1"/><path d="m296 192c0 8.835938-7.164062 16-16 16s-16-7.164062-16-16 7.164062-16 16-16 16 7.164062 16 16zm0 0" fill="#ff7043"/><path d="m208 104c0 8.835938-7.164062 16-16 16s-16-7.164062-16-16 7.164062-16 16-16 16 7.164062 16 16zm0 0" fill="#ff8a65"/><path d="m208 280c0 8.835938-7.164062 16-16 16s-16-7.164062-16-16 7.164062-16 16-16 16 7.164062 16 16zm0 0" fill="#ff8a65"/><path d="m120 192c0 8.835938-7.164062 16-16 16s-16-7.164062-16-16 7.164062-16 16-16 16 7.164062 16 16zm0 0" fill="#ff7043"/><g fill="#012e52"><path d="m192 0c-105.839844 0-192 86.160156-192 192 0 66.71875 34.238281 125.601562 86 160h-70c-8.800781 0-16 7.199219-16 16s7.199219 16 16 16h176c105.839844 0 192-86.160156 192-192s-86.160156-192-192-192zm0 352c-88.238281 0-160-71.761719-160-160s71.761719-160 160-160 160 71.761719 160 160-71.761719 160-160 160zm0 0"/><path d="m232 192c0 26.480469 21.519531 48 48 48s48-21.519531 48-48-21.519531-48-48-48-48 21.519531-48 48zm64 0c0 8.800781-7.199219 16-16 16s-16-7.199219-16-16 7.199219-16 16-16 16 7.199219 16 16zm0 0"/><path d="m192 152c26.480469 0 48-21.519531 48-48s-21.519531-48-48-48-48 21.519531-48 48 21.519531 48 48 48zm0-64c8.800781 0 16 7.199219 16 16s-7.199219 16-16 16-16-7.199219-16-16 7.199219-16 16-16zm0 0"/><path d="m192 232c-26.480469 0-48 21.519531-48 48s21.519531 48 48 48 48-21.519531 48-48-21.519531-48-48-48zm0 64c-8.800781 0-16-7.199219-16-16s7.199219-16 16-16 16 7.199219 16 16-7.199219 16-16 16zm0 0"/><path d="m216 192c0 13.253906-10.746094 24-24 24s-24-10.746094-24-24 10.746094-24 24-24 24 10.746094 24 24zm0 0"/><path d="m104 144c-26.480469 0-48 21.519531-48 48s21.519531 48 48 48 48-21.519531 48-48-21.519531-48-48-48zm0 64c-8.800781 0-16-7.199219-16-16s7.199219-16 16-16 16 7.199219 16 16-7.199219 16-16 16zm0 0"/></g></svg>