<svg height="384pt" viewBox="0 0 384 384" width="384pt" xmlns="http://www.w3.org/2000/svg"><path d="m352 288v64h-320v-64zm-32 32c0-8.800781-7.199219-16-16-16h-32c-8.800781 0-16 7.199219-16 16s7.199219 16 16 16h32c8.800781 0 16-7.199219 16-16zm-96 0c0-8.800781-7.199219-16-16-16h-32c-8.800781 0-16 7.199219-16 16s7.199219 16 16 16h32c8.800781 0 16-7.199219 16-16zm-96 0c0-8.800781-7.199219-16-16-16h-32c-8.800781 0-16 7.199219-16 16s7.199219 16 16 16h32c8.800781 0 16-7.199219 16-16zm0 0" fill="#4dd0e1"/><path d="m352 32v64h-320v-64zm-32 32c0-8.800781-7.199219-16-16-16h-32c-8.800781 0-16 7.199219-16 16s7.199219 16 16 16h32c8.800781 0 16-7.199219 16-16zm-96 0c0-8.800781-7.199219-16-16-16h-32c-8.800781 0-16 7.199219-16 16s7.199219 16 16 16h32c8.800781 0 16-7.199219 16-16zm-96 0c0-8.800781-7.199219-16-16-16h-32c-8.800781 0-16 7.199219-16 16s7.199219 16 16 16h32c8.800781 0 16-7.199219 16-16zm0 0" fill="#4dd0e1"/><path d="m64 128h256v128h-256zm0 0" fill="#ff7043"/><g fill="#012e52"><path d="m16 384h352c8.800781 0 16-7.199219 16-16v-96c0-8.800781-7.199219-16-16-16h-16v-128h16c8.800781 0 16-7.199219 16-16v-96c0-8.800781-7.199219-16-16-16h-352c-8.800781 0-16 7.199219-16 16v96c0 8.800781 7.199219 16 16 16h16v128h-16c-8.800781 0-16 7.199219-16 16v96c0 8.800781 7.199219 16 16 16zm16-352h320v64h-320zm288 96v128h-256v-128zm-288 160h320v64h-320zm0 0"/><path d="m304 48h-32c-8.800781 0-16 7.199219-16 16s7.199219 16 16 16h32c8.800781 0 16-7.199219 16-16s-7.199219-16-16-16zm0 0"/><path d="m304 304h-32c-8.800781 0-16 7.199219-16 16s7.199219 16 16 16h32c8.800781 0 16-7.199219 16-16s-7.199219-16-16-16zm0 0"/><path d="m208 48h-32c-8.800781 0-16 7.199219-16 16s7.199219 16 16 16h32c8.800781 0 16-7.199219 16-16s-7.199219-16-16-16zm0 0"/><path d="m208 304h-32c-8.800781 0-16 7.199219-16 16s7.199219 16 16 16h32c8.800781 0 16-7.199219 16-16s-7.199219-16-16-16zm0 0"/><path d="m112 48h-32c-8.800781 0-16 7.199219-16 16s7.199219 16 16 16h32c8.800781 0 16-7.199219 16-16s-7.199219-16-16-16zm0 0"/><path d="m112 304h-32c-8.800781 0-16 7.199219-16 16s7.199219 16 16 16h32c8.800781 0 16-7.199219 16-16s-7.199219-16-16-16zm0 0"/></g></svg>