<svg height="384pt" viewBox="0 0 384.03942 384" width="384pt" xmlns="http://www.w3.org/2000/svg"><path d="m272.019531 176.019531v16h-160v-16zm0 0" fill="#ff7043"/><path d="m144.019531 64.019531h96v80h-96zm0 0" fill="#4dd0e1"/><g fill="#012e52"><path d="m334.578125 257.300781c-3.757813-8-13.277344-11.519531-21.277344-7.839843-8 3.757812-11.519531 13.199218-7.839843 21.277343l48 104c2.71875 5.839844 8.558593 9.28125 14.558593 9.28125 2.238281 0 4.558594-.480469 6.71875-1.441406 8-3.757813 11.519531-13.199219 7.839844-21.277344zm0 0"/><path d="m304.019531 160.019531c0-8.800781-7.199219-16-16-16h-16v-24h64c8.800781 0 16-7.199219 16-16v-88c0-8.800781-7.199219-15.9999998-16-15.9999998s-16 7.1992188-16 15.9999998v72h-48v-40c0-8.800781-7.199219-16-16-16h-128c-8.800781 0-16 7.199219-16 16v40h-48v-72c0-8.800781-7.199219-15.9999998-16-15.9999998s-16 7.1992188-16 15.9999998v88c0 8.800781 7.199219 16 16 16h64v24h-16c-8.800781 0-16 7.199219-16 16v48c0 8.800781 7.199219 16 16 16h192c8.800781 0 16-7.199219 16-16zm-160-96h96v80h-96zm128 128h-160v-16h160zm0 0"/><path d="m70.738281 249.460938c-8.078125-3.679688-17.519531-.160157-21.277343 7.839843l-48 104c-3.679688 8.078125-.160157 17.519531 7.839843 21.277344 2.160157.960937 4.480469 1.441406 6.71875 1.441406 6 0 11.839844-3.441406 14.558594-9.28125l48-104c3.679687-8.078125.160156-17.519531-7.839844-21.277343zm0 0"/></g></svg>