<svg height="384pt" viewBox="-40 0 384 384" width="384pt" xmlns="http://www.w3.org/2000/svg"><path d="m272 208v144h-240v-144h24c0 52.960938 43.039062 96 96 96s96-43.039062 96-96zm0 0" fill="#4dd0e1"/><path d="m272 32v176h-24c0-52.960938-43.039062-96-96-96s-96 43.039062-96 96h-24v-176zm-24 48c0-13.199219-10.800781-24-24-24s-24 10.800781-24 24 10.800781 24 24 24 24-10.800781 24-24zm-136 0c0-8.800781-7.199219-16-16-16h-24c-8.800781 0-16 7.199219-16 16s7.199219 16 16 16h24c8.800781 0 16-7.199219 16-16zm0 0" fill="#4dd0e1"/><path d="m152 144c35.28125 0 64 28.71875 64 64s-28.71875 64-64 64-64-28.71875-64-64 28.71875-64 64-64zm24 64c0-13.199219-10.800781-24-24-24s-24 10.800781-24 24 10.800781 24 24 24 24-10.800781 24-24zm0 0" fill="#ff7043"/><g fill="#012e52"><path d="m16 0c-8.800781 0-16 7.199219-16 16v352c0 8.800781 7.199219 16 16 16h272c8.800781 0 16-7.199219 16-16v-352c0-8.800781-7.199219-16-16-16zm256 208v144h-240v-320h240zm0 0"/><path d="m248 80c0 13.253906-10.746094 24-24 24s-24-10.746094-24-24 10.746094-24 24-24 24 10.746094 24 24zm0 0"/><path d="m152 304c52.960938 0 96-43.039062 96-96s-43.039062-96-96-96-96 43.039062-96 96 43.039062 96 96 96zm0-160c35.28125 0 64 28.71875 64 64s-28.71875 64-64 64-64-28.71875-64-64 28.71875-64 64-64zm0 0"/><path d="m176 208c0 13.253906-10.746094 24-24 24s-24-10.746094-24-24 10.746094-24 24-24 24 10.746094 24 24zm0 0"/><path d="m72 96h24c8.800781 0 16-7.199219 16-16s-7.199219-16-16-16h-24c-8.800781 0-16 7.199219-16 16s7.199219 16 16 16zm0 0"/></g></svg>