<svg height="384pt" viewBox="-56 0 384 384" width="384pt" xmlns="http://www.w3.org/2000/svg"><path d="m240 128h-208c0-13.199219 10.800781-24 24-24 8.800781 0 16-7.199219 16-16 0-12.960938 10.398438-23.601562 23.359375-24 3.199219.320312 6.5625-.398438 9.441406-2.078125 4-2.320313 6.800781-6.160156 7.679688-10.722656 2.238281-11.121094 12.160156-19.199219 23.519531-19.199219s21.28125 8.078125 23.519531 19.199219c.878907 4.5625 3.679688 8.402343 7.679688 10.722656 2.878906 1.679687 6.160156 2.398437 9.441406 2.078125 12.960937.398438 23.359375 10.960938 23.359375 24 0 8.800781 7.199219 16 16 16 13.199219 0 24 10.800781 24 24zm-88-16c8.800781 0 16-7.199219 16-16 0-17.679688-14.320312-32-32-32-8.800781 0-16 7.199219-16 16s7.199219 16 16 16c0 8.800781 7.199219 16 16 16zm0 0" fill="#ff7043"/><path d="m230.800781 160-21.121093 192h-32.160157l12.082031-134.558594c.796876-8.800781-5.679687-16.5625-14.480468-17.363281-8.960938-.71875-16.5625 5.683594-17.359375 14.480469l-12.402344 137.441406h-18.71875l-12.402344-137.441406c-.796875-8.796875-8.398437-15.199219-17.359375-14.480469-8.800781.800781-15.277344 8.5625-14.480468 17.363281l12.082031 134.558594h-32.160157l-21.121093-192zm0 0" fill="#4dd0e1"/><g fill="#012e52"><path d="m9.519531 158.878906 22.558594 210.882813c.882813 8.078125 7.761719 14.238281 15.921875 14.238281h176c8.160156 0 15.039062-6.160156 15.921875-14.238281l22.316406-199.761719.800781-12c5.679688-8.878906 8.960938-19.28125 8.960938-30 0-26-17.761719-47.921875-41.839844-54.160156-5.359375-20.558594-22.082031-36.480469-43.039062-40.71875-8.882813-19.761719-28.800782-33.121094-51.121094-33.121094s-42.238281 13.359375-51.121094 33.121094c-20.957031 4.238281-37.679687 20.160156-43.039062 40.71875-24.078125 6.238281-41.839844 28.160156-41.839844 54.160156 0 11.199219 3.359375 21.679688 9.519531 30.878906zm200.160157 193.121094h-32.160157l12.082031-134.558594c.796876-8.800781-5.679687-16.5625-14.480468-17.363281-8.960938-.71875-16.5625 5.683594-17.359375 14.480469l-12.402344 137.441406h-18.71875l-12.402344-137.441406c-.796875-8.796875-8.398437-15.199219-17.359375-14.480469-8.800781.800781-15.277344 8.5625-14.480468 17.363281l12.082031 134.558594h-32.160157l-21.121093-192h189.601562zm-153.679688-248c8.800781 0 16-7.199219 16-16 0-12.960938 10.398438-23.601562 23.359375-24 3.199219.320312 6.5625-.398438 9.441406-2.078125 4-2.320313 6.800781-6.160156 7.679688-10.722656 2.238281-11.121094 12.160156-19.199219 23.519531-19.199219s21.28125 8.078125 23.519531 19.199219c.878907 4.5625 3.679688 8.402343 7.679688 10.722656 2.878906 1.679687 6.160156 2.398437 9.441406 2.078125 12.960937.398438 23.359375 10.960938 23.359375 24 0 8.800781 7.199219 16 16 16 13.199219 0 24 10.800781 24 24h-208c0-13.199219 10.800781-24 24-24zm0 0"/><path d="m136 64c-8.800781 0-16 7.199219-16 16s7.199219 16 16 16c0 8.800781 7.199219 16 16 16s16-7.199219 16-16c0-17.679688-14.320312-32-32-32zm0 0"/><path d="m40 36.71875c0-2.640625 2.078125-4.71875 4.71875-4.71875 8.800781 0 16-7.199219 16-16s-7.199219-16-16-16c-20.238281 0-36.71875 16.480469-36.71875 36.71875 0 8.800781 7.199219 16 16 16s16-7.199219 16-16zm0 0"/></g></svg>