<svg height="384pt" viewBox="0 -24 384 384" width="384pt" xmlns="http://www.w3.org/2000/svg"><path d="m352 96v128h-320v-128h137.601562v.078125c.078126.160156.078126.320313.160157.480469.476562 2.242187 1.039062 4.480468 1.679687 6.722656.320313.796875.558594 1.597656.878906 2.398438.480469 1.519531 1.039063 3.039062 1.679688 4.558593.320312.882813.71875 1.761719 1.121094 2.640625.640625 1.359375 1.277344 2.722656 2 4 .398437.882813.957031 1.761719 1.4375 2.640625.722656 1.28125 1.441406 2.480469 2.242187 3.679688.558594.878906 1.121094 1.679687 1.679688 2.5625.800781 1.199219 1.679687 2.316406 2.640625 3.519531.558594.71875 1.117187 1.519531 1.757812 2.238281 1.042969 1.199219 2.082032 2.320313 3.199219 3.519531.5625.5625 1.121094 1.199219 1.683594 1.839844 1.757812 1.679688 3.519531 3.28125 5.359375 4.800782.160156.160156.398437.242187.558594.398437 1.679687 1.441406 3.441406 2.722656 5.199218 3.921875.722656.480469 1.441406.960938 2.160156 1.359375 1.359376.878906 2.722657 1.679687 4.082032 2.480469.800781.480468 1.679687.878906 2.558594 1.359375 1.359374.640625 2.640624 1.28125 4 1.921875.878906.398437 1.839843.800781 2.800781 1.199218 1.359375.480469 2.71875 1.039063 4.160156 1.519532.960937.320312 1.917969.558594 2.878906.878906 1.441407.402344 2.960938.800781 4.402344 1.121094.957031.238281 1.917969.480468 2.878906.640625 1.679688.320312 3.359375.558593 5.039063.800781.800781.078125 1.601562.238281 2.480468.320312 2.480469.238282 5.039063.398438 7.679688.398438s5.199219-.160156 7.679688-.398438c.878906-.082031 1.679687-.242187 2.480468-.320312 1.679688-.242188 3.359375-.480469 5.039063-.800781.960937-.160157 1.921875-.402344 2.878906-.640625 1.441406-.320313 2.960937-.71875 4.402344-1.121094.960937-.320312 1.917969-.558594 2.878906-.878906 1.441406-.480469 2.800781-1.039063 4.160156-1.519532.960938-.398437 1.921875-.800781 2.800781-1.199218 1.359376-.640625 2.640626-1.28125 4-1.921875.878907-.480469 1.757813-.878907 2.558594-1.359375 1.359375-.800782 2.722656-1.601563 4.082032-2.480469.71875-.398437 1.4375-.878906 2.160156-1.359375 1.757812-1.199219 3.519531-2.480469 5.199218-3.921875.160157-.15625.398438-.238281.558594-.398437 1.839844-1.519532 3.601563-3.121094 5.359375-4.800782.5625-.640625 1.121094-1.277344 1.683594-1.839844 1.117187-1.199218 2.15625-2.320312 3.199219-3.519531.640625-.71875 1.199218-1.519531 1.757812-2.238281.960938-1.203125 1.839844-2.320312 2.640625-3.519531.558594-.882813 1.121094-1.683594 1.679688-2.5625.800781-1.199219 1.519531-2.398438 2.242187-3.679688.480469-.878906 1.039063-1.757812 1.4375-2.640625.722656-1.277344 1.359375-2.640625 2-4 .402344-.878906.800782-1.757812 1.121094-2.640625.640625-1.519531 1.199219-3.039062 1.679688-4.558593.320312-.800782.558593-1.601563.878906-2.398438.640625-2.242188 1.203125-4.480469 1.679687-6.722656.082031-.160156.082031-.320313.160157-.480469v-.078125zm-152 88c0-8.800781-7.199219-16-16-16h-32c-8.800781 0-16 7.199219-16 16s7.199219 16 16 16h32c8.800781 0 16-7.199219 16-16zm-80-48c0-8.800781-7.199219-16-16-16h-32c-8.800781 0-16 7.199219-16 16s7.199219 16 16 16h32c8.800781 0 16-7.199219 16-16zm0 48c0-8.800781-7.199219-16-16-16h-32c-8.800781 0-16 7.199219-16 16s7.199219 16 16 16h32c8.800781 0 16-7.199219 16-16zm0 0" fill="#4dd0e1"/><path d="m321.839844 256-5.359375 16h-248.960938l-5.359375-16zm0 0" fill="#ff7043"/><path d="m248 32c26.480469 0 48 21.519531 48 48s-21.519531 48-48 48-48-21.519531-48-48 21.519531-48 48-48zm24 48c0-13.199219-10.800781-24-24-24s-24 10.800781-24 24 10.800781 24 24 24 24-10.800781 24-24zm0 0" fill="#e0f7fa"/><g fill="#012e52"><path d="m16 256h12.480469l12.320312 37.039062c2.238281 6.5625 8.320313 10.960938 15.199219 10.960938h32v16c0 8.800781 7.199219 16 16 16s16-7.199219 16-16v-16h144v16c0 8.800781 7.199219 16 16 16s16-7.199219 16-16v-16h32c6.878906 0 12.960938-4.398438 15.199219-10.960938l12.320312-37.039062h12.480469c8.800781 0 16-7.199219 16-16v-160c0-8.800781-7.199219-16-16-16h-41.601562c-7.4375-36.480469-39.757813-64-78.398438-64s-70.960938 27.519531-78.398438 64h-153.601562c-8.800781 0-16 7.199219-16 16v160c0 8.800781 7.199219 16 16 16zm300.480469 16h-248.960938l-5.359375-16h259.679688zm-68.480469-240c26.480469 0 48 21.519531 48 48s-21.519531 48-48 48-48-21.519531-48-48 21.519531-48 48-48zm-216 64h137.601562v.078125c.078126.160156.078126.320313.160157.480469.476562 2.242187 1.039062 4.480468 1.679687 6.722656.320313.796875.558594 1.597656.878906 2.398438.480469 1.519531 1.039063 3.039062 1.679688 4.558593.320312.882813.71875 1.761719 1.121094 2.640625.640625 1.359375 1.277344 2.722656 2 4 .398437.882813.957031 1.761719 1.4375 2.640625.722656 1.28125 1.441406 2.480469 2.242187 3.679688.558594.878906 1.121094 1.679687 1.679688 2.5625.800781 1.199219 1.679687 2.316406 2.640625 3.519531.558594.71875 1.117187 1.519531 1.757812 2.238281 1.042969 1.199219 2.082032 2.320313 3.199219 3.519531.5625.5625 1.121094 1.199219 1.683594 1.839844 1.757812 1.679688 3.519531 3.28125 5.359375 4.800782.160156.160156.398437.242187.558594.398437 1.679687 1.441406 3.441406 2.722656 5.199218 3.921875.722656.480469 1.441406.960938 2.160156 1.359375 1.359376.878906 2.722657 1.679687 4.082032 2.480469.800781.480468 1.679687.878906 2.558594 1.359375 1.359374.640625 2.640624 1.28125 4 1.921875.878906.398437 1.839843.800781 2.800781 1.199218 1.359375.480469 2.71875 1.039063 4.160156 1.519532.960937.320312 1.917969.558594 2.878906.878906 1.441407.402344 2.960938.800781 4.402344 1.121094.957031.238281 1.917969.480468 2.878906.640625 1.679688.320312 3.359375.558593 5.039063.800781.800781.078125 1.601562.238281 2.480468.320312 2.480469.238282 5.039063.398438 7.679688.398438s5.199219-.160156 7.679688-.398438c.878906-.082031 1.679687-.242187 2.480468-.320312 1.679688-.242188 3.359375-.480469 5.039063-.800781.960937-.160157 1.921875-.402344 2.878906-.640625 1.441406-.320313 2.960937-.71875 4.402344-1.121094.960937-.320312 1.917969-.558594 2.878906-.878906 1.441406-.480469 2.800781-1.039063 4.160156-1.519532.960938-.398437 1.921875-.800781 2.800781-1.199218 1.359376-.640625 2.640626-1.28125 4-1.921875.878907-.480469 1.757813-.878907 2.558594-1.359375 1.359375-.800782 2.722656-1.601563 4.082032-2.480469.71875-.398437 1.4375-.878906 2.160156-1.359375 1.757812-1.199219 3.519531-2.480469 5.199218-3.921875.160157-.15625.398438-.238281.558594-.398437 1.839844-1.519532 3.601563-3.121094 5.359375-4.800782.5625-.640625 1.121094-1.277344 1.683594-1.839844 1.117187-1.199218 2.15625-2.320312 3.199219-3.519531.640625-.71875 1.199218-1.519531 1.757812-2.238281.960938-1.203125 1.839844-2.320312 2.640625-3.519531.558594-.882813 1.121094-1.683594 1.679688-2.5625.800781-1.199219 1.519531-2.398438 2.242187-3.679688.480469-.878906 1.039063-1.757812 1.4375-2.640625.722656-1.277344 1.359375-2.640625 2-4 .402344-.878906.800782-1.757812 1.121094-2.640625.640625-1.519531 1.199219-3.039062 1.679688-4.558593.320312-.800782.558593-1.601563.878906-2.398438.640625-2.242188 1.203125-4.480469 1.679687-6.722656.082031-.160156.082031-.320313.160157-.480469v-.078125h25.601562v128h-320zm0 0"/><path d="m272 80c0 13.253906-10.746094 24-24 24s-24-10.746094-24-24 10.746094-24 24-24 24 10.746094 24 24zm0 0"/><path d="m152 200h32c8.800781 0 16-7.199219 16-16s-7.199219-16-16-16h-32c-8.800781 0-16 7.199219-16 16s7.199219 16 16 16zm0 0"/><path d="m72 152h32c8.800781 0 16-7.199219 16-16s-7.199219-16-16-16h-32c-8.800781 0-16 7.199219-16 16s7.199219 16 16 16zm0 0"/><path d="m72 200h32c8.800781 0 16-7.199219 16-16s-7.199219-16-16-16h-32c-8.800781 0-16 7.199219-16 16s7.199219 16 16 16zm0 0"/></g></svg>