<svg height="384pt" viewBox="0 0 384.03044 384" width="384pt" xmlns="http://www.w3.org/2000/svg"><path d="m345.371094 136.015625-140.640625 140.71875-9.441407-9.4375c6.320313-6.242187 6.320313-16.320313 0-22.5625l-56-56c-5.4375-5.519531-13.839843-6.238281-20.078124-2.078125l-10.320313-10.160156c58.160156-58.722656 115.601563-116.480469 138.480469-138.480469zm-38.082032 11.28125c6.320313-6.242187 6.320313-16.320313 0-22.5625l-8-8c-6.238281-6.320313-16.320312-6.320313-22.558593 0-6.320313 6.242187-6.320313 16.320313 0 22.5625l8 8c3.121093 3.117187 7.199219 4.71875 11.28125 4.71875 4.078125 0 8.160156-1.601563 11.277343-4.71875zm-40-40c6.320313-6.242187 6.320313-16.320313 0-22.5625l-8-8c-6.238281-6.320313-16.320312-6.320313-22.558593 0-6.320313 6.242187-6.320313 16.320313 0 22.5625l8 8c3.121093 3.117187 7.199219 4.71875 11.28125 4.71875 4.078125 0 8.160156-1.601563 11.277343-4.71875zm-16 56c6.320313-6.242187 6.320313-16.320313 0-22.5625l-8-8c-6.238281-6.320313-16.320312-6.320313-22.558593 0-6.320313 6.242187-6.320313 16.320313 0 22.5625l8 8c3.121093 3.117187 7.199219 4.71875 11.28125 4.71875 4.078125 0 8.160156-1.601563 11.277343-4.71875zm-16 56c6.320313-6.242187 6.320313-16.320313 0-22.5625l-8-8c-6.238281-6.320313-16.320312-6.320313-22.558593 0-6.320313 6.242187-6.320313 16.320313 0 22.5625l8 8c3.121093 3.117187 7.199219 4.71875 11.28125 4.71875 4.078125 0 8.160156-1.601563 11.277343-4.71875zm-40-40c6.320313-6.242187 6.320313-16.320313 0-22.5625l-8-8c-6.238281-6.320313-16.320312-6.320313-22.558593 0-6.320313 6.242187-6.320313 16.320313 0 22.5625l8 8c3.121093 3.117187 7.199219 4.71875 11.28125 4.71875 4.078125 0 8.160156-1.601563 11.277343-4.71875zm0 0" fill="#4dd0e1"/><path d="m204.730469 276.734375-68.71875 68.640625-97.441407-97.441406c22-22.320313 46.238282-46.957032 70.320313-71.4375l10.320313 10.160156c-.878907.640625-1.679688 1.277344-2.480469 2.078125-6.320313 6.242187-6.320313 16.320313 0 22.5625l56 56c3.121093 3.117187 7.199219 4.71875 11.28125 4.71875 4.078125 0 8.160156-1.601563 11.277343-4.71875zm-49.441407 22.5625c6.320313-6.242187 6.320313-16.320313 0-22.5625l-8-8c-6.238281-6.320313-16.320312-6.320313-22.558593 0-6.320313 6.242187-6.320313 16.320313 0 22.5625l8 8c3.121093 3.117187 7.199219 4.71875 11.28125 4.71875 4.078125 0 8.160156-1.601563 11.277343-4.71875zm-40-40c6.320313-6.242187 6.320313-16.320313 0-22.5625l-8-8c-6.238281-6.320313-16.320312-6.320313-22.558593 0-6.320313 6.242187-6.320313 16.320313 0 22.5625l8 8c3.121093 3.117187 7.199219 4.71875 11.28125 4.71875 4.078125 0 8.160156-1.601563 11.277343-4.71875zm0 0" fill="#ff7043"/><g fill="#012e52"><path d="m259.289062 4.734375c-2.957031-3.039063-7.277343-4.398437-11.359374-4.71875-9.039063 0-10.640626 0-243.359376 236.800781-6.160156 6.238282-6.078124 16.320313.160157 22.480469l120 120c3.121093 3.117187 7.199219 4.71875 11.28125 4.71875 4.078125 0 8.160156-1.601563 11.277343-4.71875l232-232c6.320313-6.242187 6.320313-16.320313 0-22.5625zm-54.558593 272-68.71875 68.640625-97.441407-97.441406c22-22.320313 46.238282-46.957032 70.320313-71.4375 58.160156-58.722656 115.601563-116.480469 138.480469-138.480469l98 98zm0 0"/><path d="m276.730469 139.296875 8 8c3.121093 3.117187 7.199219 4.71875 11.28125 4.71875 4.078125 0 8.160156-1.601563 11.277343-4.71875 6.320313-6.242187 6.320313-16.320313 0-22.5625l-8-8c-6.238281-6.320313-16.320312-6.320313-22.558593 0-6.320313 6.242187-6.320313 16.320313 0 22.5625zm0 0"/><path d="m236.730469 99.296875 8 8c3.121093 3.117187 7.199219 4.71875 11.28125 4.71875 4.078125 0 8.160156-1.601563 11.277343-4.71875 6.320313-6.242187 6.320313-16.320313 0-22.5625l-8-8c-6.238281-6.320313-16.320312-6.320313-22.558593 0-6.320313 6.242187-6.320313 16.320313 0 22.5625zm0 0"/><path d="m243.289062 132.734375c-6.238281-6.320313-16.320312-6.320313-22.558593 0-6.320313 6.242187-6.320313 16.320313 0 22.5625l8 8c3.121093 3.117187 7.199219 4.71875 11.28125 4.71875 4.078125 0 8.160156-1.601563 11.277343-4.71875 6.320313-6.242187 6.320313-16.320313 0-22.5625zm0 0"/><path d="m227.289062 188.734375c-6.238281-6.320313-16.320312-6.320313-22.558593 0-6.320313 6.242187-6.320313 16.320313 0 22.5625l8 8c3.121093 3.117187 7.199219 4.71875 11.28125 4.71875 4.078125 0 8.160156-1.601563 11.277343-4.71875 6.320313-6.242187 6.320313-16.320313 0-22.5625zm0 0"/><path d="m172.730469 179.296875c3.121093 3.117187 7.199219 4.71875 11.28125 4.71875 4.078125 0 8.160156-1.601563 11.277343-4.71875 6.320313-6.242187 6.320313-16.320313 0-22.5625l-8-8c-6.238281-6.320313-16.320312-6.320313-22.558593 0-6.320313 6.242187-6.320313 16.320313 0 22.5625zm0 0"/><path d="m139.289062 188.734375c-5.4375-5.519531-13.839843-6.238281-20.078124-2.078125-.878907.640625-1.679688 1.277344-2.480469 2.078125-6.320313 6.242187-6.320313 16.320313 0 22.5625l56 56c3.121093 3.117187 7.199219 4.71875 11.28125 4.71875 4.078125 0 8.160156-1.601563 11.277343-4.71875 6.320313-6.242187 6.320313-16.320313 0-22.5625zm0 0"/><path d="m147.289062 268.734375c-6.238281-6.320313-16.320312-6.320313-22.558593 0-6.320313 6.242187-6.320313 16.320313 0 22.5625l8 8c3.121093 3.117187 7.199219 4.71875 11.28125 4.71875 4.078125 0 8.160156-1.601563 11.277343-4.71875 6.320313-6.242187 6.320313-16.320313 0-22.5625zm0 0"/><path d="m115.289062 236.734375-8-8c-6.238281-6.320313-16.320312-6.320313-22.558593 0-6.320313 6.242187-6.320313 16.320313 0 22.5625l8 8c3.121093 3.117187 7.199219 4.71875 11.28125 4.71875 4.078125 0 8.160156-1.601563 11.277343-4.71875 6.320313-6.242187 6.320313-16.320313 0-22.5625zm0 0"/></g></svg>