<svg height="384pt" viewBox="0 0 384 384" width="384pt" xmlns="http://www.w3.org/2000/svg"><path d="m352 192c0 13.839844-1.921875 27.199219-5.28125 40h-95.117188l18.320313-32.078125v-.082031s.078125 0 .078125-.078125l54.238281-97.683594c17.523438 25.683594 27.761719 56.640625 27.761719 89.921875zm0 0" fill="#e0f7fa"/><path d="m224 264h110.71875c-19.757812 38.960938-54.957031 68.878906-97.597656 81.441406l-48.882813-81.441406zm0 0" fill="#4dd0e1"/><path d="m302.078125 76.160156-46.238281 83.28125-17.917969-31.28125-53.84375-95.761718c2.640625-.160157 5.28125-.398438 7.921875-.398438 42.640625 0 81.359375 16.878906 110.078125 44.160156zm0 0" fill="#4dd0e1"/><path d="m214.71875 152 22.882812 40-22.882812 40h-45.4375l-22.882812-40 22.882812-40zm0 0" fill="#ff7043"/><path d="m146.320312 256.238281 57.121094 95.203125c-3.761718.238282-7.601562.558594-11.441406.558594-44.160156 0-84.160156-18-113.121094-46.960938l48.800782-81.359374 18.398437 32.242187c.082031.078125.082031.078125.082031.15625.078125 0 .078125.082031.160156.160156zm0 0" fill="#e0f7fa"/><path d="m150.320312 37.679688 46.320313 82.320312h-147.359375c20.320312-40.078125 56.878906-70.320312 101.039062-82.320312zm0 0" fill="#e0f7fa"/><path d="m132.398438 152-18.238282 31.921875-56.640625 94.476563c-16.078125-24.957032-25.519531-54.558594-25.519531-86.398438 0-13.839844 1.921875-27.199219 5.28125-40zm0 0" fill="#4dd0e1"/><path d="m332.078125 60.878906c-35.039063-37.4375-84.878906-60.878906-140.078125-60.878906-84 0-155.601562 54.320312-181.519531 129.601562-.242188.398438-.320313.878907-.480469 1.359376-6.480469 19.199218-10 39.679687-10 61.039062 0 47.28125 17.199219 90.558594 45.601562 124 .71875 1.199219 1.679688 2.238281 2.796876 3.199219 35.203124 39.679687 86.480468 64.800781 143.601562 64.800781 14.320312 0 28.320312-1.601562 41.761719-4.640625h.078125c65.359375-14.558594 118.160156-62.558594 139.679687-124.960937.242188-.398438.320313-.878907.480469-1.359376 6.480469-19.199218 10-39.679687 10-61.039062 0-49.121094-18.558594-93.921875-48.960938-127.921875-.800781-1.117187-1.757812-2.238281-2.960937-3.199219zm-140.078125-28.878906c42.640625 0 81.359375 16.878906 110.078125 44.160156l-46.238281 83.28125-17.917969-31.28125-53.84375-95.761718c2.640625-.160157 5.28125-.398438 7.921875-.398438zm45.601562 160-22.882812 40h-45.4375l-22.882812-40 22.882812-40h45.4375zm-87.28125-154.320312 46.320313 82.320312h-147.359375c20.320312-40.078125 56.878906-70.320312 101.039062-82.320312zm-118.320312 154.320312c0-13.839844 1.921875-27.199219 5.28125-40h95.117188l-18.238282 31.921875-56.640625 94.476563c-16.078125-24.957032-25.519531-54.558594-25.519531-86.398438zm160 160c-44.160156 0-84.160156-18-113.121094-46.960938l48.800782-81.359374 18.398437 32.242187c.082031.078125.082031.078125.082031.15625.078125 0 .078125.082031.160156.160156l57.121094 95.203125c-3.761718.238282-7.601562.558594-11.441406.558594zm45.121094-6.558594-48.882813-81.441406h146.480469c-19.757812 38.960938-54.957031 68.878906-97.597656 81.441406zm109.597656-113.441406h-95.117188l18.320313-32.078125v-.082031s.078125 0 .078125-.078125l54.238281-97.683594c17.523438 25.683594 27.761719 56.640625 27.761719 89.921875 0 13.839844-1.921875 27.199219-5.28125 40zm0 0" fill="#012e52"/></svg>