<svg height="384pt" viewBox="0 -64 384 384" width="384pt" xmlns="http://www.w3.org/2000/svg"><path d="m352 189.921875v34.078125h-72v-16c0-8.800781-7.199219-16-16-16s-16 7.199219-16 16v16h-216v-34.078125c27.519531-7.121094 48-32.160156 48-61.921875s-20.480469-54.800781-48-61.921875v-34.078125h216v16c0 8.800781 7.199219 16 16 16s16-7.199219 16-16v-16h72v34.078125c-27.519531 7.121094-48 32.160156-48 61.921875s20.480469 54.800781 48 61.921875zm-72-37.921875v-48c0-8.800781-7.199219-16-16-16s-16 7.199219-16 16v48c0 8.800781 7.199219 16 16 16s16-7.199219 16-16zm-72 32v-112c0-8.800781-7.199219-16-16-16h-80c-8.800781 0-16 7.199219-16 16s7.199219 16 16 16h64v80h-64c-8.800781 0-16 7.199219-16 16s7.199219 16 16 16h80c8.800781 0 16-7.199219 16-16zm0 0" fill="#4dd0e1"/><path d="m112 72h80v112h-80zm0 0" fill="#ff7043"/><path d="m320 128c0 26.480469 21.519531 48 48 48v64h-104v-224h104v64c-26.480469 0-48 21.519531-48 48zm0 0" fill="#ff7043"/><g fill="#012e52"><path d="m16 256h352c8.800781 0 16-7.199219 16-16v-64c0-8.800781-7.199219-16-16-16-17.679688 0-32-14.320312-32-32s14.320312-32 32-32c8.800781 0 16-7.199219 16-16v-64c0-8.800781-7.199219-16-16-16h-352c-8.800781 0-16 7.199219-16 16v64c0 8.800781 7.199219 16 16 16 17.679688 0 32 14.320312 32 32s-14.320312 32-32 32c-8.800781 0-16 7.199219-16 16v64c0 8.800781 7.199219 16 16 16zm16-66.078125c27.519531-7.121094 48-32.160156 48-61.921875s-20.480469-54.800781-48-61.921875v-34.078125h216v16c0 8.800781 7.199219 16 16 16s16-7.199219 16-16v-16h72v34.078125c-27.519531 7.121094-48 32.160156-48 61.921875s20.480469 54.800781 48 61.921875v34.078125h-72v-16c0-8.800781-7.199219-16-16-16s-16 7.199219-16 16v16h-216zm0 0"/><path d="m264 168c8.800781 0 16-7.199219 16-16v-48c0-8.800781-7.199219-16-16-16s-16 7.199219-16 16v48c0 8.800781 7.199219 16 16 16zm0 0"/><path d="m192 56h-80c-8.800781 0-16 7.199219-16 16s7.199219 16 16 16h64v80h-64c-8.800781 0-16 7.199219-16 16s7.199219 16 16 16h80c8.800781 0 16-7.199219 16-16v-112c0-8.800781-7.199219-16-16-16zm0 0"/></g></svg>