<svg height="384pt" viewBox="0 -64 384 384" width="384pt" xmlns="http://www.w3.org/2000/svg"><path d="m352 77.921875v100.15625c-22.398438 5.84375-40.078125 23.523437-45.921875 45.921875h-42.078125v-24c8.800781 0 16-7.199219 16-16s-7.199219-16-16-16v-24c8.800781 0 16-7.199219 16-16s-7.199219-16-16-16v-24c8.800781 0 16-7.199219 16-16s-7.199219-16-16-16v-24h42.078125c5.84375 22.398438 23.523437 40.078125 45.921875 45.921875zm0 0" fill="#ff7043"/><path d="m264 200v24h-186.078125c-5.84375-22.398438-23.523437-40.078125-45.921875-45.921875v-100.15625c22.398438-5.84375 40.078125-23.523437 45.921875-45.921875h186.078125v24h-16c-8.800781 0-16 7.199219-16 16s7.199219 16 16 16h16v24h-144c-8.800781 0-16 7.199219-16 16s7.199219 16 16 16h144v24h-80c-8.800781 0-16 7.199219-16 16s7.199219 16 16 16zm-48-128c0-8.800781-7.199219-16-16-16h-80c-8.800781 0-16 7.199219-16 16s7.199219 16 16 16h80c8.800781 0 16-7.199219 16-16zm-64 112c0-8.800781-7.199219-16-16-16h-16c-8.800781 0-16 7.199219-16 16s7.199219 16 16 16h16c8.800781 0 16-7.199219 16-16zm0 0" fill="#4dd0e1"/><g fill="#012e52"><path d="m16 208c17.679688 0 32 14.320312 32 32 0 8.800781 7.199219 16 16 16h256c8.800781 0 16-7.199219 16-16 0-17.679688 14.320312-32 32-32 8.800781 0 16-7.199219 16-16v-128c0-8.800781-7.199219-16-16-16-17.679688 0-32-14.320312-32-32 0-8.800781-7.199219-16-16-16h-256c-8.800781 0-16 7.199219-16 16 0 17.679688-14.320312 32-32 32-8.800781 0-16 7.199219-16 16v128c0 8.800781 7.199219 16 16 16zm16-130.078125c22.398438-5.84375 40.078125-23.523437 45.921875-45.921875h228.15625c5.84375 22.398438 23.523437 40.078125 45.921875 45.921875v100.15625c-22.398438 5.84375-40.078125 23.523437-45.921875 45.921875h-228.15625c-5.84375-22.398438-23.523437-40.078125-45.921875-45.921875zm0 0"/><path d="m248 88h16c8.800781 0 16-7.199219 16-16s-7.199219-16-16-16h-16c-8.800781 0-16 7.199219-16 16s7.199219 16 16 16zm0 0"/><path d="m120 144h144c8.800781 0 16-7.199219 16-16s-7.199219-16-16-16h-144c-8.800781 0-16 7.199219-16 16s7.199219 16 16 16zm0 0"/><path d="m264 168h-80c-8.800781 0-16 7.199219-16 16s7.199219 16 16 16h80c8.800781 0 16-7.199219 16-16s-7.199219-16-16-16zm0 0"/><path d="m120 88h80c8.800781 0 16-7.199219 16-16s-7.199219-16-16-16h-80c-8.800781 0-16 7.199219-16 16s7.199219 16 16 16zm0 0"/><path d="m120 200h16c8.800781 0 16-7.199219 16-16s-7.199219-16-16-16h-16c-8.800781 0-16 7.199219-16 16s7.199219 16 16 16zm0 0"/></g></svg>