<svg height="384pt" viewBox="-8 0 384 384.0035" width="384pt" xmlns="http://www.w3.org/2000/svg"><path d="m336.003906 112.003906v192h-288v-192zm-24 152v-112c0-8.800781-7.199218-16-16-16h-208c-8.796875 0-16 7.199219-16 16v112c0 8.800782 7.203125 16 16 16h208c8.800782 0 16-7.199218 16-16zm0 0" fill="#4dd0e1"/><path d="m104.003906 168.003906h176v80h-176zm0 0" fill="#ff7043"/><g fill="#012e52"><path d="m195.285156 28.722656c-6.238281-6.320312-16.320312-6.320312-22.558594 0l-46.480468 46.402344-100.960938-72.160156c-7.199218-5.121094-17.199218-3.441406-22.320312 3.757812-5.121094 7.199219-3.441406 17.199219 3.761718 22.320313l71.359376 50.960937h-46.082032c-8.796875 0-16 7.199219-16 16v224c0 8.800782 7.203125 16 16 16h48v32c0 8.800782 7.203125 16 16 16 8.800782 0 16-7.199218 16-16v-32h160v32c0 8.800782 7.203125 16 16 16 8.800782 0 16-7.199218 16-16v-32h48c8.800782 0 16-7.199218 16-16v-224c0-8.800781-7.199218-16-16-16h-185.359375l28.640625-28.71875c6.320313-6.242187 6.320313-16.320312 0-22.5625zm140.71875 83.28125v192h-288v-192zm0 0"/><path d="m88.003906 280.003906h208c8.800782 0 16-7.199218 16-16v-112c0-8.800781-7.199218-16-16-16h-208c-8.796875 0-16 7.199219-16 16v112c0 8.800782 7.203125 16 16 16zm16-112h176v80h-176zm0 0"/></g></svg>