<svg height="384pt" viewBox="0 -56 384 384" width="384pt" xmlns="http://www.w3.org/2000/svg"><path d="m352 136v104h-320v-104h24c0 39.679688 32.320312 72 72 72h16c8.800781 0 16-7.199219 16-16v-8h64v8c0 8.800781 7.199219 16 16 16h16c39.679688 0 72-32.320312 72-72zm0 0" fill="#4dd0e1"/><path d="m352 32v104h-24c0-39.679688-32.320312-72-72-72h-16c-8.800781 0-16 7.199219-16 16v8h-64v-8c0-8.800781-7.199219-16-16-16h-16c-39.679688 0-72 32.320312-72 72h-24v-104zm0 0" fill="#4dd0e1"/><path d="m256 96c22.078125 0 40 17.921875 40 40s-17.921875 40-40 40zm0 0" fill="#ff8a65"/><path d="m160 120h64v32h-64zm0 0" fill="#e0f7fa"/><path d="m128 96v80c-22.078125 0-40-17.921875-40-40s17.921875-40 40-40zm0 0" fill="#ff7043"/><g fill="#012e52"><path d="m16 272h352c8.800781 0 16-7.199219 16-16v-240c0-8.800781-7.199219-16-16-16h-352c-8.800781 0-16 7.199219-16 16v240c0 8.800781 7.199219 16 16 16zm16-136v-104h320v208h-320zm0 0"/><path d="m256 64h-16c-8.800781 0-16 7.199219-16 16v8h-64v-8c0-8.800781-7.199219-16-16-16h-16c-39.679688 0-72 32.320312-72 72s32.320312 72 72 72h16c8.800781 0 16-7.199219 16-16v-8h64v8c0 8.800781 7.199219 16 16 16h16c39.679688 0 72-32.320312 72-72s-32.320312-72-72-72zm-128 112c-22.078125 0-40-17.921875-40-40s17.921875-40 40-40zm96-24h-64v-32h64zm32 24v-80c22.078125 0 40 17.921875 40 40s-17.921875 40-40 40zm0 0"/></g></svg>