<svg height="384pt" viewBox="0 -40 384 384" width="384pt" xmlns="http://www.w3.org/2000/svg"><path d="m352 125.199219v117.601562l-80-22.878906v-71.84375l24-6.878906v34.800781c0 8.800781 7.199219 16 16 16s16-7.199219 16-16v-43.921875zm0 0" fill="#ff7043"/><path d="m240 232v40h-208v-40h96c8.800781 0 16-7.199219 16-16s-7.199219-16-16-16h-96v-104h208zm-32-16c0-8.800781-7.199219-16-16-16h-16c-8.800781 0-16 7.199219-16 16s7.199219 16 16 16h16c8.800781 0 16-7.199219 16-16zm-88-64c0-17.679688-14.320312-32-32-32s-32 14.320312-32 32 14.320312 32 32 32 32-14.320312 32-32zm0 0" fill="#4dd0e1"/><g fill="#012e52"><path d="m377.601562 91.199219c-4-2.960938-9.203124-4-14-2.558594l-91.601562 26.160156v-34.800781c0-8.800781-7.199219-16-16-16h-32v-48c0-8.800781-7.199219-16-16-16h-152c-8.800781 0-16 7.199219-16 16v16c0 8.800781 7.199219 16 16 16s16-7.199219 16-16h120v32h-176c-8.800781 0-16 7.199219-16 16v208c0 8.800781 7.199219 16 16 16h240c8.800781 0 16-7.199219 16-16v-34.800781l91.601562 26.160156c1.4375.402344 2.957032.640625 4.398438.640625 3.441406 0 6.800781-1.121094 9.601562-3.199219 4.078126-3.039062 6.398438-7.761719 6.398438-12.800781v-160c0-5.039062-2.320312-9.761719-6.398438-12.800781zm-137.601562 44.800781v136h-208v-40h96c8.800781 0 16-7.199219 16-16s-7.199219-16-16-16h-96v-104h208zm112 106.800781-80-22.878906v-71.84375l24-6.878906v34.800781c0 8.800781 7.199219 16 16 16s16-7.199219 16-16v-43.921875l24-6.878906zm0 0"/><path d="m176 232h16c8.800781 0 16-7.199219 16-16s-7.199219-16-16-16h-16c-8.800781 0-16 7.199219-16 16s7.199219 16 16 16zm0 0"/><path d="m120 152c0 17.671875-14.328125 32-32 32s-32-14.328125-32-32 14.328125-32 32-32 32 14.328125 32 32zm0 0"/></g></svg>