<svg height="384pt" viewBox="0 0 384 384" width="384pt" xmlns="http://www.w3.org/2000/svg"><path d="m352 32v224h-320v-224zm-96 112c0-5.601562-2.960938-10.800781-7.761719-13.679688l-80-48c-4.957031-3.039062-11.117187-3.121093-16.160156-.242187-4.957031 2.800781-8.078125 8.160156-8.078125 13.921875v96c0 5.761719 3.121094 11.121094 8.078125 13.921875 2.480469 1.359375 5.203125 2.078125 7.921875 2.078125 2.878906 0 5.679688-.71875 8.238281-2.320312l80-48c4.800781-2.878907 7.761719-8.078126 7.761719-13.679688zm0 0" fill="#4dd0e1"/><path d="m208.878906 144-32.878906 19.761719v-39.523438zm0 0" fill="#ff7043"/><g fill="#012e52"><path d="m368 0h-352c-8.800781 0-16 7.199219-16 16v256c0 8.800781 7.199219 16 16 16h352c8.800781 0 16-7.199219 16-16v-256c0-8.800781-7.199219-16-16-16zm-16 256h-320v-224h320zm0 0"/><path d="m368 328h-272v-8c0-8.800781-7.199219-16-16-16s-16 7.199219-16 16v8h-48c-8.800781 0-16 7.199219-16 16s7.199219 16 16 16h48v8c0 8.800781 7.199219 16 16 16s16-7.199219 16-16v-8h272c8.800781 0 16-7.199219 16-16s-7.199219-16-16-16zm0 0"/><path d="m152.078125 205.921875c2.480469 1.359375 5.203125 2.078125 7.921875 2.078125 2.878906 0 5.679688-.71875 8.238281-2.320312l80-48c4.800781-2.878907 7.761719-8.078126 7.761719-13.679688s-2.960938-10.800781-7.761719-13.679688l-80-48c-4.957031-3.039062-11.117187-3.121093-16.160156-.242187-4.957031 2.800781-8.078125 8.160156-8.078125 13.921875v96c0 5.761719 3.121094 11.121094 8.078125 13.921875zm23.921875-81.683594 32.878906 19.761719-32.878906 19.761719zm0 0"/></g></svg>